<?xml version="1.0" standalone="no"?>
<!DOCTYPE svg PUBLIC "-//W3C//DTD SVG 20010904//EN"
 "http://www.w3.org/TR/2001/REC-SVG-20010904/DTD/svg10.dtd">
<svg version="1.0" xmlns="http://www.w3.org/2000/svg"
 width="348.000000pt" height="153.000000pt" viewBox="0 0 348.000000 153.000000"
 preserveAspectRatio="xMidYMid meet">

<g transform="translate(0.000000,153.000000) scale(0.100000,-0.100000)"
fill="#000000" stroke="none">
<path d="M395 1463 c-94 -34 -158 -100 -192 -199 -21 -62 -13 -164 16 -224 16
-31 124 -145 351 -370 290 -287 330 -330 340 -368 21 -83 -13 -161 -90 -200
-91 -45 -155 -23 -274 97 l-80 80 17 36 c24 51 22 115 -5 155 -67 98 -208 89
-259 -17 -55 -113 52 -240 172 -204 l41 12 92 -89 c50 -49 106 -97 125 -106
39 -20 122 -24 173 -7 100 33 157 173 112 279 -10 25 -127 149 -348 372 -361
363 -360 362 -360 470 1 144 121 260 269 260 88 0 138 -25 240 -122 45 -43 86
-78 90 -78 5 0 47 38 94 83 64 62 100 88 136 100 282 97 492 -241 278 -446
-39 -37 -41 -38 -109 -35 l-69 3 -30 59 c-17 33 -36 61 -43 64 -6 2 -34 -41
-64 -102 -29 -58 -58 -106 -65 -106 -7 0 -22 18 -33 40 -11 22 -25 40 -30 40
-5 0 -19 -18 -30 -40 -11 -22 -27 -40 -35 -40 -9 0 -36 42 -67 105 -29 58 -57
105 -63 105 -6 0 -25 -29 -43 -65 l-32 -65 -63 0 c-68 0 -79 -4 -70 -26 4 -10
25 -14 79 -14 l74 0 20 40 c11 22 27 40 35 40 9 0 36 -42 67 -105 29 -58 56
-105 60 -105 4 0 17 18 28 39 11 22 24 42 29 45 11 7 47 -35 56 -65 4 -10 10
-19 15 -19 5 0 34 47 65 105 31 58 61 105 68 105 7 0 21 -17 32 -38 l20 -37
86 -3 85 -3 53 56 c70 74 94 131 94 220 0 164 -119 291 -283 302 -100 7 -164
-21 -264 -117 l-81 -78 -75 72 c-42 40 -97 83 -124 95 -65 32 -164 38 -231 14z
m15 -980 c54 -37 69 -86 44 -140 -20 -40 -59 -63 -110 -63 -51 0 -104 53 -104
105 0 47 14 71 53 95 39 24 85 25 117 3z"/>
<path d="M2524 1135 c-7 -18 3 -35 21 -35 15 0 28 27 19 41 -8 14 -34 11 -40
-6z"/>
<path d="M2410 1085 c0 -55 -6 -65 -28 -43 -6 6 -32 11 -58 11 -40 0 -51 -4
-76 -31 -40 -46 -40 -112 1 -153 24 -23 38 -29 73 -29 24 0 54 7 66 16 20 14
22 14 22 0 0 -9 7 -16 15 -16 13 0 15 23 15 150 0 127 -2 150 -15 150 -12 0
-15 -13 -15 -55z m-21 -91 c27 -35 26 -66 -2 -100 -48 -56 -129 -24 -129 50 0
50 25 76 73 76 29 0 42 -6 58 -26z"/>
<path d="M1590 985 c0 -137 1 -145 19 -145 18 0 20 7 18 99 -1 55 1 97 4 95 3
-2 28 -39 54 -84 27 -44 52 -80 56 -80 4 0 32 39 61 88 l53 87 3 -102 c2 -90
5 -103 20 -103 15 0 17 14 14 146 -2 107 -6 144 -15 141 -6 -2 -39 -50 -73
-106 l-61 -102 -63 106 c-34 58 -68 105 -76 105 -11 0 -14 -28 -14 -145z"/>
<path d="M2024 1044 c-38 -18 -58 -53 -58 -99 0 -43 20 -80 51 -94 53 -24 158
-4 139 27 -4 8 -16 7 -40 -3 -26 -11 -41 -12 -65 -4 -27 10 -51 35 -51 53 0 3
41 6 90 6 84 0 90 1 90 20 0 37 -30 81 -65 96 -43 17 -52 17 -91 -2z m99 -42
c35 -31 21 -42 -53 -42 -74 0 -88 11 -52 42 32 29 71 29 105 0z"/>
<path d="M2530 948 c0 -89 3 -108 15 -108 12 0 15 19 15 108 0 90 -3 109 -15
109 -12 0 -15 -19 -15 -109z"/>
<path d="M1630 688 c-19 -13 -40 -35 -47 -48 -18 -36 -16 -117 4 -151 21 -35
86 -69 132 -69 39 0 101 27 101 44 0 22 -12 25 -36 9 -33 -21 -95 -21 -128 0
-94 62 -51 207 61 207 21 0 49 -7 62 -16 17 -12 26 -13 34 -5 22 22 -18 45
-85 49 -54 3 -68 0 -98 -20z"/>
<path d="M3220 665 c0 -16 -6 -25 -15 -25 -8 0 -15 -7 -15 -15 0 -8 7 -15 15
-15 12 0 15 -14 15 -69 0 -98 38 -140 104 -115 21 8 8 33 -15 27 -36 -10 -49
14 -49 88 l0 69 30 0 c20 0 30 5 30 15 0 10 -10 15 -30 15 -25 0 -30 4 -30 25
0 18 -5 25 -20 25 -15 0 -20 -7 -20 -25z"/>
<path d="M1899 611 c-28 -28 -34 -48 -29 -100 5 -59 62 -98 127 -88 71 12 111
89 83 157 -27 65 -129 82 -181 31z m121 -11 c10 -5 22 -22 27 -37 29 -86 -64
-146 -127 -83 -60 60 24 161 100 120z"/>
<path d="M2152 533 c3 -93 5 -108 21 -111 15 -3 17 6 17 72 0 87 18 116 69
116 49 0 61 -21 61 -111 0 -71 2 -80 18 -77 14 3 18 16 20 68 4 77 -2 104 -28
130 -24 24 -86 27 -118 4 -20 -14 -22 -14 -22 0 0 9 -9 16 -20 16 -20 0 -21
-5 -18 -107z"/>
<path d="M2440 530 c0 -91 3 -110 15 -110 12 0 15 14 15 69 0 85 22 121 75
121 50 0 65 -28 65 -117 0 -58 3 -73 15 -73 12 0 15 17 15 89 0 85 -1 91 -26
110 -29 23 -83 27 -117 10 -16 -9 -22 -9 -25 0 -2 6 -10 11 -18 11 -11 0 -14
-22 -14 -110z"/>
<path d="M2734 606 c-24 -24 -34 -43 -34 -65 0 -74 60 -128 132 -118 44 6 69
23 62 42 -4 10 -11 10 -35 -2 -36 -18 -84 -9 -104 20 -8 12 -15 25 -15 29 0 5
41 8 91 8 l91 0 -7 33 c-10 49 -56 87 -106 87 -33 0 -47 -6 -75 -34z m128 -13
c36 -32 23 -43 -52 -43 -74 0 -83 7 -50 40 24 24 77 26 102 3z"/>
<path d="M3009 625 c-56 -30 -63 -125 -14 -174 33 -33 111 -37 144 -7 29 27
12 40 -27 20 -68 -33 -135 25 -111 96 17 49 72 66 115 36 14 -10 25 -11 35 -5
12 8 10 13 -10 29 -28 24 -93 26 -132 5z"/>
</g>
</svg>
